<svg xmlns="http://www.w3.org/2000/svg" viewBox="0 0 512 512" style="height: 512px; width: 512px;"><defs><linearGradient id="lorc-saphir-gradient-1" x1="0" x2="1" y1="1" y2="0"><stop offset="0%" stop-color="#1f1926" stop-opacity="1"></stop><stop offset="100%" stop-color="#b400ff" stop-opacity="1"></stop></linearGradient></defs><path d="M0 0h512v512H0z" fill="#969696" fill-opacity="1"></path><g class="" transform="translate(0,0)" style=""><path d="M413.47 20.25l-11.47 4L84.97 134.72 78.437 137l.406 6.875L97.78 478.47l.69 12.124 11.468-4 317.03-110.47 6.5-2.28-.374-6.906-18.938-334.563-.687-12.125zm-31.533 30.375l-43.375 64.75-180.75 63.375-36.78-24.53c74.22 12.515 196.82-52.49 257.124-102.282l3.78-1.313zm16.032 19.688l15.78 279.125-49.313-32.875-4.187-76.47c18.567-45.422 32.45-114.342 37.72-169.78zm-63.44 67.75l9.69 176.187-166.876 58.5-2.78-50.47c48.082 9.04 83.113-8.624 104.342-38.25-27.814-3.42-46.384-30.984-43.094-60.28 3.174-28.257 24.982-51.253 51.72-52.313 1.782-.07 3.615-.035 5.437.094 2.458.176 4.837.56 7.155 1.095-1.355-6.985-3.194-13.86-5.5-20.563l39.906-14zM117.78 174.5l29.657 19.78 10.47 190.814-43.407 64.812-.188-3.656c24.146-101.32 36.74-217.525 3.47-271.75zm172.095 22.625c-13.068-.123-26.546 12.068-28.5 29.47-2.017 17.96 8.33 31.076 21.78 32.03 13.452.954 27.765-11.444 29.783-29.406 2.017-17.963-8.363-31.08-21.813-32.032-.42-.03-.828-.06-1.25-.063zm64.156 134.97l49.283 32.874-254.938 88.81c48.305-26.555 103.147-64.172 135.594-97.124l70.06-24.562z" fill="url(#lorc-saphir-gradient-1)"></path></g><g class="" transform="translate(256,256)" style=""><g><circle cx="128" cy="128" r="128" fill="#000" fill-opacity="1"></circle><circle stroke="#fff" stroke-opacity="1" fill="#000" fill-opacity="1" stroke-width="18" cx="128" cy="128" r="101"></circle><path fill="#fff" fill-opacity="1" d="M149.5 123q12.8 3.3 19.4 11.5 6.7 8.1 6.7 20.7 0 18.8-14.4 28.6t-42 9.8q-9.7 0-19.51-1.7-9.73-1.5-19.29-4.6v-25.1q9.14 4.5 18.11 6.9 9.09 2.3 17.79 2.3 12.9 0 19.8-4.5T143 154q0-8.6-7.1-13-7-4.5-20.8-4.5h-13v-21h13.7q12.2 0 18.3-3.8 6-3.9 6-11.75 0-7.28-5.9-11.26-5.8-3.98-16.5-3.98-7.9 0-15.9 1.78-8.03 1.78-15.99 5.25V67.87q9.65-2.71 19.09-4.06 9.5-1.36 18.7-1.36 24.6 0 36.8 8.13 12.2 8.04 12.2 24.29 0 11.13-5.8 18.23-5.8 7-17.3 9.9z"></path></g></g></svg>