<svg xmlns="http://www.w3.org/2000/svg" viewBox="0 0 512 512" style="height: 512px; width: 512px;"><defs><linearGradient id="lorc-saphir-gradient-1" x1="0" x2="1" y1="1" y2="0"><stop offset="0%" stop-color="#1f1926" stop-opacity="1"></stop><stop offset="100%" stop-color="#b400ff" stop-opacity="1"></stop></linearGradient></defs><path d="M0 0h512v512H0z" fill="#969696" fill-opacity="1"></path><g class="" transform="translate(0,0)" style=""><path d="M413.47 20.25l-11.47 4L84.97 134.72 78.437 137l.406 6.875L97.78 478.47l.69 12.124 11.468-4 317.03-110.47 6.5-2.28-.374-6.906-18.938-334.563-.687-12.125zm-31.533 30.375l-43.375 64.75-180.75 63.375-36.78-24.53c74.22 12.515 196.82-52.49 257.124-102.282l3.78-1.313zm16.032 19.688l15.78 279.125-49.313-32.875-4.187-76.47c18.567-45.422 32.45-114.342 37.72-169.78zm-63.44 67.75l9.69 176.187-166.876 58.5-2.78-50.47c48.082 9.04 83.113-8.624 104.342-38.25-27.814-3.42-46.384-30.984-43.094-60.28 3.174-28.257 24.982-51.253 51.72-52.313 1.782-.07 3.615-.035 5.437.094 2.458.176 4.837.56 7.155 1.095-1.355-6.985-3.194-13.86-5.5-20.563l39.906-14zM117.78 174.5l29.657 19.78 10.47 190.814-43.407 64.812-.188-3.656c24.146-101.32 36.74-217.525 3.47-271.75zm172.095 22.625c-13.068-.123-26.546 12.068-28.5 29.47-2.017 17.96 8.33 31.076 21.78 32.03 13.452.954 27.765-11.444 29.783-29.406 2.017-17.963-8.363-31.08-21.813-32.032-.42-.03-.828-.06-1.25-.063zm64.156 134.97l49.283 32.874-254.938 88.81c48.305-26.555 103.147-64.172 135.594-97.124l70.06-24.562z" fill="url(#lorc-saphir-gradient-1)"></path></g><g class="" transform="translate(256,256)" style=""><g><circle cx="128" cy="128" r="128" fill="#000" fill-opacity="1"></circle><circle stroke="#fff" stroke-opacity="1" fill="#000" fill-opacity="1" stroke-width="18" cx="128" cy="128" r="101"></circle><path fill="#fff" fill-opacity="1" d="M86.11 188.2v-23.3q7.78 3.6 14.89 5.5 7.1 1.7 14.1 1.7 14.5 0 22.6-8 8.2-8.1 9.6-24-5.8 4.2-12.3 6.3-6.5 2.1-14.1 2.1-19.4 0-31.32-11.2-11.85-11.4-11.85-29.8 0-20.42 13.2-32.69 13.27-12.28 35.57-12.28 24.7 0 38.2 16.68 13.6 16.67 13.6 47.09 0 31.4-15.9 49.3-15.8 17.9-43.4 17.9-8.9 0-17-1.4-8.11-1.3-15.89-3.9zm40.19-60.8q8.6 0 12.9-5.5 4.3-5.6 4.3-16.7 0-11.01-4.3-16.6-4.3-5.58-12.9-5.58-8.5 0-12.9 5.58-4.3 5.59-4.3 16.6 0 11.1 4.3 16.7 4.4 5.5 12.9 5.5z"></path></g></g></svg>